<svg xmlns="http://www.w3.org/2000/svg" viewBox="0 0 263.89 244.07"><defs><style>.cls-1{fill:#afb0aa;opacity:0.5;}</style></defs><title>Asset 2</title><g id="Layer_2" data-name="Layer 2"><g id="Layer_1-2" data-name="Layer 1"><path class="cls-1" d="M23.55,83.89C27,51,9.57,36.81,19.82,22.05,30.63,6.48,61.31,5.83,81.36,11.14,105,17.39,108.47,30.49,126.11,33c26.89,3.76,37-30,61.53-32.74C216.5-3,250.17,28.69,260.36,62.06c15.33,50.19-21.85,106.23-61.53,118.22-29.45,8.9-44-11.37-72.72,0-38.58,15.27-35.29,60.84-59.67,63.66-29,3.35-74.33-56.43-65.26-103.67C5.7,116.71,20.58,112.75,23.55,83.89Z"/></g></g></svg>