<svg xmlns="http://www.w3.org/2000/svg" viewBox="0 0 253 303.78"><defs><style>.cls-1{fill:#8e5043;}</style></defs><title>Asset 1</title><g id="Layer_2" data-name="Layer 2"><g id="Layer_1-2" data-name="Layer 1"><path class="cls-1" d="M3.27,285c-2.16.15-2.83,1.37-2.66,3.63.2,2.61,0,5.26.07,7.88,0,.89.59,1.14,1.28,1.24,1.87,0,3.8-.34,5.42,1.15.42.38.88-.13,1.28-.39a12.09,12.09,0,0,1,2.14-.89,7.92,7.92,0,0,0,.9-.5,5,5,0,0,1,2.31-1,23,23,0,0,0,4.54.35,12.63,12.63,0,0,1,3.07.21c.89.39,1.77.83,2.68,1.18a20.5,20.5,0,0,0,3.29,2.59c.92.8,2.08.72,3.14,1a9.88,9.88,0,0,0,2.65.34c1.17.22,2.2,1.06,3.47.81a4.91,4.91,0,0,1,2.21.28c.66.25,1.18-.24,1.75-.42,1.16-.38,2.42.05,3.55-.51,1.75-.35,2.92-1.93,4.57-2.49.35-.24.72-.46,1.08-.68.58-.27.83-1,1.43-1.22,1.21-.11,1.74-1.16,2.43-2a1.31,1.31,0,0,1,1.75-.35c5.05,2.44,9.43,1.18,13.3-2.78.75-.44,1.68-.21,2.42-.72,2.32.21,5.33-1.94,6-4.34a3.8,3.8,0,0,1,.7-1.86c.74-.69,1.77-.82,2.48-1.55a4,4,0,0,0,.94-1.33,16.57,16.57,0,0,1,2.35-3.53c.84-1.24,2.21-1.12,3.49-1a2.56,2.56,0,0,1,1.91.43,2.33,2.33,0,0,0,2.32.53,5.37,5.37,0,0,1,2.36.05,7,7,0,0,0,1.35.27,15.91,15.91,0,0,1,2.07.18c.8.18,1.3.89,2,1.29.52.17,1.06.24,1.59.37,1.64.23,3.27.58,4.93.71,1.36.87,3,.75,4.42,1.49a4.09,4.09,0,0,1,1.73,1.52c.46.61.59,1.55,1.51,1.69,1.42.45,1.45,2.43,2.84,2.91,1,.41,2.29.34,2.84,1.66s.64,2.85,1.86,3.78a20.22,20.22,0,0,1,1.77,1.26,2.15,2.15,0,0,1,.35.5c.21.43.37.89.85,1.08a4.69,4.69,0,0,0,1.4-.13c.4-.05.81-.06,1.21-.13.89-.35,1.78-.68,2.57.22.34.23.69.44,1,.64s.73.37,1.1.53,1,.29,1.49.45a3.12,3.12,0,0,0,2.78.4c.74-.33,1.22.12,1.63.7a1.12,1.12,0,0,0,1.51.51c1.44-1.07,2.87-1.86,4.7-.77,1.21.71,2-.29,2.92-1.14,1.68-1.58,3.46-3.13,6-2.81a.67.67,0,0,0,.94-.26c.19-.38.36-.76.58-1.11a3.85,3.85,0,0,1,1.49-1.29c1-.37,1.46-1.44,2.23-2.1a6,6,0,0,1,2.81-2.11,4.64,4.64,0,0,0,.82-.44c.49-.4,1-.84,1.48-1.2a9.41,9.41,0,0,1,2.93-1.36c1-.41,1.43-1.43,2.29-1.95s1.82-.42,2.51-1.17c.91-.93,2-1.66,2.89-2.59,1.36-.73,2.89-1.09,4-2.29,1-.56,2.09.17,3.12-.17a2.51,2.51,0,0,1,.61.05,2.82,2.82,0,0,1,1.72,1.1.39.39,0,0,0,.63,0,5.93,5.93,0,0,1,1.52-1.48,2,2,0,0,1,.59-.27,3.09,3.09,0,0,1,1.89.34c.65.4,1.51.09,2.11.69,2.46,1.69,3.94,4.58,6.57,6.1a4.69,4.69,0,0,0,1.71.83c.84.06,1.67,0,2.5,0a10.77,10.77,0,0,1,2.12.17,2.67,2.67,0,0,0,2.74-.16,1.62,1.62,0,0,1,.65-.11c2.38.65,3.08-1.95,4.69-2.77a4.25,4.25,0,0,1,2.35-.75,7.63,7.63,0,0,0,1.4-.31,4.64,4.64,0,0,1,1.82-.09,10.67,10.67,0,0,0,4.14,1c.69.14,1.35.41,2,.6a2.27,2.27,0,0,0,2.85-.78,6.45,6.45,0,0,1,3.49-2.2,3.16,3.16,0,0,1,1-.07c2.4.19,4.49,1.47,6.72,2.25a6.65,6.65,0,0,0,3.53-.33,3.42,3.42,0,0,0,1.62-.94c.66-.59,1.09-1.43,1.85-1.9a1.88,1.88,0,0,1,1.28-.05c.82.31,1.08-.49,1.54-.89.65-.45,1.46-.45,2.13-.85.48-.25.91-.61,1.4-.84a2.5,2.5,0,0,1,1.62-.08c.05,0,.36.52.31-.07,0-.05-.2-.16-.18-.37.53-.93.14-2.47,1.61-2.78"/><path class="cls-1" d="M253,273.27c-.84.83-.2,2.46-1.45,3.07-.5.75-1.47-.24-2,.6a1.67,1.67,0,0,1-1,1,4.69,4.69,0,0,0-2.42.56c-.09.77-.22,1.52-1,1.78-.06,0-.28-.5-.43-.76-.62-.71-1.22-.6-1.79.07-.22.77-1.27,1-1.14,2-.33.6-.94.75-1.47,1-1.51-.35-2.9.31-4.35.52a26,26,0,0,0-6.35-2.55c-.33-.12-.64-.88-1,0-1.18.8-2.55,1.2-3.43,2.62a1.81,1.81,0,0,1-2.93.49,2.52,2.52,0,0,0-1.93-.54c-1.54.06-3.09.17-4.37-1-.66-.3-1.32-.82-2,0a1,1,0,0,1-1,.48c-1-.39-2.13-.88-2.8.64-.8.63-1.62,1.23-2.44,1.83a2.29,2.29,0,0,1-1.61-.25c-.8-.36-1,.19-.94.9-.53,1.62-1.45,1.23-2.43.52a2.19,2.19,0,0,0-2.58-.31c-.94-.12-1.91-.5-2.76.29-1.92-1.5-4.56-2.05-5.53-4.8a2.22,2.22,0,0,0-1.71-1.29c-.91-.24-1.13-.82-1.08-1.68-.6-.35-1.38,0-1.95-.54s-1.3-.64-1.94,0h0a6,6,0,0,1-1.92,1,1.79,1.79,0,0,1-.73,0c-.54-.32-1.22,0-1.74-.45h0c-1.14.26-2.29-.43-3.42,0-.62,2-2.46,1.95-3.9,2.56-1.08.72-2.3,1.27-2.92,2.59-.54,1.07-1.67.56-2.43,1.05-1.23.14-1.57,1.48-2.45,2.08l-2.93,1.55c-.91-.33-1,.57-1.45,1l-.51.52c-1.66-.4-2.45.57-2.9,2.08-1.07.35-1,2.2-2.46,2.07-1-.43-1,.62-1.44,1a1.18,1.18,0,0,1-.5,1.08c-.27.3-.42.86-1,.52A7.59,7.59,0,0,0,146.5,300c-.67,1-2.38,1.81-3.3,1-2-1.69-3-.51-4.26.82-.6-.48-1.6-.09-2-1.05-.41-.12-.57-1-1.14-.53-1.29,1.14-2.23.19-3.22-.5-.56-.54-.23-1.36-.52-1.92-.7-1.34-1.19-.74-1.52.33a1.48,1.48,0,0,1-.4.55,1,1,0,0,1-1-.5c-.58-.81-1.13-1.74-2.25-.76-.54.26-1.22.13-1.63.73-.49-.17-1,.61-1.48,0-.49-.41-.57-1.1-1-1.56v0c-.46-.73-1-1.27-1.92-1.07-1.64-.85-1.79-2.51-2-4.15-.25-2-2-.87-2.88-1.53-1.93,0-1.35-2.75-3-3.13-.53-.47-.79-1.24-1.47-1.56l-1.43-1.54c-1.24-1.28-3.21-.25-4.44-1.57-1.7.78-3.26-.07-4.86-.49-.62-.89-1.26-.59-1.91-.05L97.49,280a2.19,2.19,0,0,0-2.42,0,1,1,0,0,1-1-.48,3.29,3.29,0,0,0-2.92,0c-.9.88-1.38,0-2-.52-.51-.78-1.11-1.18-1.94-.47-3-.11-4.27,2.21-5.39,4.64a1.59,1.59,0,0,0-1.22.87c-.36,1.07-1.76.64-2.15,1.68-.56,3.17-2.52,4.89-5.06,6.45-1.19.73-1.53-.55-2.28-.2-.56.53-1.4,0-2,.55-1.51,2.84-6.34,5.32-9.33,4.48-1.63-.46-3.61.19-4.93-1.58-.2-.26-.66.3-.84.69a14.49,14.49,0,0,1-2.46,1.58c-.63.36-.38,1.66-1.46,1.54-.65-.52-.77.08-1,.52-1.59.6-2.5,2.53-4.38,2.6-1.39.77-3-.32-4.38.58-.39.53-.68,1.37-1.48.5-.41-1.12-1.18-.82-1.94-.56-1.29,1-2.3-.18-3.41-.52-.89-.77-2.05.19-2.94-.52-1.18-.18-2.6.57-3.4-1a12.79,12.79,0,0,0-2.93-2.62c-.93,0-1.92.18-2.42-1-1.09-.65-2.27-.15-3.4-.31a13.09,13.09,0,0,1-4.44-.51,2.46,2.46,0,0,0-2.39,1.23l-.52.58c-1-.51-1.68.08-2.43.58-.15.93-1,1.65-1.46,1-1.5-2.05-3.57-1.15-5.37-1.58-.52-.6-1.58,0-1.92-1,0-3.35,0-6.71,0-10.06V0H252.82Z"/><path class="cls-1" d="M130.16,298.17c0-.86-.3-2,1.21-1.67,1,.23,1.82.59,1.36,2a6.38,6.38,0,0,0-.13,1.25c-.54,0-1.12.09-1.46-.53C131.53,298.11,130.37,298.65,130.16,298.17Z"/><path class="cls-1" d="M205.22,285.73c-.28,0-.79.1-.81,0-.31-1.05.8-1.27,1.1-2,.15-.37.56-.3.67.11.23.88.87.82,1.5.83.18,2.11-1.08,1.16-2,1Z"/><path class="cls-1" d="M205.73,285.73c.77-.1,1.79.34,1.94-1l2.42-1.56c.18-.21.35-.22.51,0a29.09,29.09,0,0,1-2.48,2.71A1.6,1.6,0,0,1,205.73,285.73Z"/><path class="cls-1" d="M24.37,298.18a3,3,0,0,1,2.93,2.62C26.15,300.15,24.79,299.76,24.37,298.18Z"/><path class="cls-1" d="M105.76,282.09c1.45.62,3.32-.11,4.44,1.57C108.74,283.08,106.83,283.91,105.76,282.09Z"/><path class="cls-1" d="M236,283.12c1.42-.46,2.76-1.68,4.35-.52A10.39,10.39,0,0,1,236,283.12Z"/><path class="cls-1" d="M126.74,297.12c1.31-.91,2.15-.62,2.44,1.08a2.1,2.1,0,0,0-2.45-.05A.74.74,0,0,1,126.74,297.12Z"/><path class="cls-1" d="M13.65,296.11l4.89.56q.23.13.15.27c-.05.1-.1.14-.15.14-1.68.31-3.28-.2-4.9-.48-.16-.11-.21-.22-.16-.33S13.59,296.11,13.65,296.11Z"/><path class="cls-1" d="M200.35,285.72c1.07-1.12,1.9-1.06,2.44.53l-2.44,0c-.17-.12-.23-.23-.17-.34S200.3,285.72,200.35,285.72Z"/><path class="cls-1" d="M40.47,302.91c1.34-1.23,2.94-.25,4.38-.58C43.5,303.42,41.92,302.57,40.47,302.91Z"/><path class="cls-1" d="M99,281.55c.11-1.26,1-1.06,1.72-.94s.64.54.19,1Z"/><path class="cls-1" d="M158,292c.16-2,.92-3,2.9-2.08A4.11,4.11,0,0,0,158,292Z"/><path class="cls-1" d="M177.44,278.49c1.13-1,2.27-.25,3.42,0C179.72,279.4,178.58,278.69,177.44,278.49Z"/><path class="cls-1" d="M170.62,283.64c.27-1.76,1.54-2.25,2.92-2.59C172.81,282.22,171.58,282.76,170.62,283.64Z"/><path class="cls-1" d="M187.16,277.43a2.69,2.69,0,0,0,2.22.39c.35-.12.65-.06.38.41-.08.16-.41.16-.63.23a1.5,1.5,0,0,1-1.93,0A.75.75,0,0,1,187.16,277.43Z"/><path class="cls-1" d="M210.6,283.14h-.51c.61-2.51,1.83-1.11,2.92-.52A3.62,3.62,0,0,0,210.6,283.14Z"/><path class="cls-1" d="M165.74,286.77c.48-1.14.93-2.32,2.45-2.08C167.33,285.33,167,286.71,165.74,286.77Z"/><path class="cls-1" d="M51.66,297.67a3.11,3.11,0,0,1,2.46-1.58C53.53,297,53,298.06,51.66,297.67Z"/><path class="cls-1" d="M200.35,285.72v.51h-2.9C198.22,284.79,199.29,285.26,200.35,285.72Z"/><path class="cls-1" d="M78.51,285.7c0-1.38,1.76-.87,1.94-2.06.42-.06.68,0,.48.57C80.47,285.34,79.29,285.16,78.51,285.7Z"/><path class="cls-1" d="M249.6,276.94c.19-1.88,1.43.07,2-.6.23.14,1,.24.14.53A6.92,6.92,0,0,1,249.6,276.94Z"/><path class="cls-1" d="M130.16,298.17c.6.35.87-1.1,1.48-.34s-.34.92-.5,1.38a1,1,0,0,1-1-.51Z"/><path class="cls-1" d="M116.06,289.89c1,.32,2.85-1,2.88,1.53C118.36,290.1,116.85,290.76,116.06,289.89Z"/><path class="cls-1" d="M13.65,296.11c0,.16,0,.33,0,.49l-1.92,1C11.8,296.27,12.63,296.05,13.65,296.11Z"/><path class="cls-1" d="M111.63,285.2a1.43,1.43,0,0,1,1.47,1.56C111.82,287.08,112.16,285.68,111.63,285.2Z"/><path class="cls-1" d="M8.77,298.75c.61-1.17,1.38-1.52,2.43-.58Z"/><path class="cls-1" d="M30.7,301.81c.94.43,2.15-.88,2.94.52C32.65,302.18,31.56,302.75,30.7,301.81Z"/><path class="cls-1" d="M69.22,292.5a1.48,1.48,0,0,1,2-.55C70.92,293.73,69.85,292.23,69.22,292.5Z"/><path class="cls-1" d="M214,282.13c.3-1.3.41-1.3,2,0Z"/><path class="cls-1" d="M49.23,299.73a1.08,1.08,0,0,1,.53-1.62c.73-.16.32.7.44,1.1Z"/><path class="cls-1" d="M154.05,295a1.79,1.79,0,0,1,1.07-1.76c1-.38.42.39.37.75Z"/><path class="cls-1" d="M241.78,281.57c-.74-1.28.66-1.39,1-2.07.17-.22.34-.23.5,0Z"/><path class="cls-1" d="M37.05,302.85c.84-.59,1.71-1.26,1.94.56C38.47,302.74,37.63,303.28,37.05,302.85Z"/><path class="cls-1" d="M91.16,279.5c.88-.91,1.93-.46,2.93-.4,0,0,.09.13.09.2s-.07.15-.1.23Z"/><path class="cls-1" d="M18.54,297.08a2.81,2.81,0,0,1,0-.41c1.14.14,2.38-.53,3.41.51Z"/><path class="cls-1" d="M243.28,279.52l-.5,0c.65-1.06,1.29-1.75,1.93,0Z"/><path class="cls-1" d="M187.16,277.43c0,.34,0,.69,0,1a3.2,3.2,0,0,0-2-.51C185.65,276.85,186.34,276.89,187.16,277.43Z"/><path class="cls-1" d="M183.31,278.46l1.94-.52c-.21.92-1.54.94-1.47,2.08C182.62,279.84,183,279.16,183.31,278.46Z"/><path class="cls-1" d="M246.17,278.49a1.58,1.58,0,0,1,2.42-.56A3.84,3.84,0,0,1,246.17,278.49Z"/><path class="cls-1" d="M220.35,283.13c.88-.79,1.4-.11,1.93.54A3.25,3.25,0,0,1,220.35,283.13Z"/><path class="cls-1" d="M87.27,278.51c.9-1.05,1.54-.84,1.94.47A2.7,2.7,0,0,0,87.27,278.51Z"/><path class="cls-1" d="M95.07,280c.8-.52,1.61-1.48,2.42,0Z"/><path class="cls-1" d="M126.74,297.12c0,.35,0,.69,0,1l-1.43,0C125.32,297.1,126.05,297.13,126.74,297.12Z"/><path class="cls-1" d="M183.31,278.46c0,.57-.14,1.2.47,1.56-.49.66-1,.67-1.46,0,.48-.4,0-1.14.47-1.55Z"/><path class="cls-1" d="M0,297.17c.49.66,1.64-.06,1.92,1C1.2,298.07.17,298.54,0,297.17Z"/><path class="cls-1" d="M182.79,278.46c0,.57.13,1.19-.47,1.55.11-1.15-1.12-.87-1.46-1.55Z"/><path class="cls-1" d="M120.92,295.57c1.21-.81,1.64,0,1.92,1.07Z"/><path class="cls-1" d="M161.36,289.35c.23-.75.16-2,1.45-1Z"/><path class="cls-1" d="M152.56,296.63l1-.52c0,.46.15,1.08-.37,1.27S152.66,297,152.56,296.63Z"/><path class="cls-1" d="M228.64,280.56c-.18-.15-.9,0-.48-.46.56-.64,1.16-.39,1.45.47Z"/><path class="cls-1" d="M122.83,296.62a1.56,1.56,0,0,1,1,1.56C122.81,298.15,122.85,297.37,122.83,296.62Z"/><path class="cls-1" d="M137,300.77l2,1.05C138.16,301.73,137.14,302.15,137,300.77Z"/><path class="cls-1" d="M80.93,284.21l-.48-.57c.27-.86.79-.89,1.43-.49A1.62,1.62,0,0,1,80.93,284.21Z"/></g></g></svg>