<svg id="Layer_1" data-name="Layer 1" xmlns="http://www.w3.org/2000/svg" viewBox="0 0 440 116"><defs><style>.cls-1{fill:#fff;}</style></defs><title>Artboard 3</title><path class="cls-1" d="M32.16,94.15c-3.44,0-4.52.75-4.27,2.12a30.25,30.25,0,0,1,0,4.76c0,.54.93.7,2,.79,3,.07,6.06-.11,8.63.84a3.62,3.62,0,0,0,2-.2c1.07-.24,2.28-.32,3.43-.48.49-.08,1-.17,1.43-.28a16.55,16.55,0,0,1,3.7-.54c2.4.13,4.78.38,7.23.33,1.63.05,3.27,0,4.87.22,1.43.26,2.82.55,4.27.78a46.28,46.28,0,0,0,5.21,1.66,23.59,23.59,0,0,0,5,.67,41.71,41.71,0,0,0,4.21.29c1.86.16,3.5.69,5.52.58a19.41,19.41,0,0,1,3.52.23,9.44,9.44,0,0,0,2.8-.21c1.85-.19,3.85.1,5.66-.21,2.79-.16,4.66-1.08,7.3-1.37.56-.14,1.15-.26,1.73-.38.92-.15,1.32-.58,2.29-.7a8.36,8.36,0,0,0,3.9-1.13,4.6,4.6,0,0,1,2.79-.16,38.37,38.37,0,0,0,21.22-1.31c1.2-.25,2.67-.08,3.85-.36,3.69.18,8.51-1,9.66-2.46.31-.39.32-.82,1.13-1.11,1.18-.39,2.84-.44,4-.86a4.62,4.62,0,0,0,1.51-.78c.81-.82,2.51-1.38,3.78-2.06s3.53-.62,5.57-.52a9.51,9.51,0,0,1,3,.31,8.67,8.67,0,0,0,3.7.38,22.48,22.48,0,0,1,3.76.1c.71.08,1.41.17,2.15.2,1.1,0,2.21,0,3.29.17a18.49,18.49,0,0,1,3.13.83c.83.12,1.69.17,2.52.27,2.62.18,5.21.44,7.85.56,2.16.56,4.8.54,7,1a8.64,8.64,0,0,1,2.75,1c.72.38.92,1,2.39,1.07,2.26.31,2.27,1.5,4.48,1.83,1.62.28,3.65.27,4.51,1.08s1,1.74,2.92,2.34c.9.29,2,.48,2.82.81a2.84,2.84,0,0,1,.55.31,2.32,2.32,0,0,0,1.33.67,18.52,18.52,0,0,0,2.24,0c.64,0,1.29,0,1.93,0a7.39,7.39,0,0,1,4.08.21l1.67.41,1.73.35c.77.13,1.59.2,2.38.31a12.09,12.09,0,0,0,4.41.32,3.77,3.77,0,0,1,2.6.47,3.51,3.51,0,0,0,2.39.35,14.42,14.42,0,0,1,7.51-.34c1.91.47,3.21-.12,4.66-.6a23,23,0,0,1,9.54-1.53A2.17,2.17,0,0,0,271,105c.31-.22.58-.44.94-.65a8.06,8.06,0,0,1,2.38-.73c1.63-.2,2.34-.83,3.58-1.21a14,14,0,0,1,4.5-1.2,12.51,12.51,0,0,0,1.3-.24c.8-.23,1.55-.48,2.38-.69a32.51,32.51,0,0,1,4.68-.74c1.51-.21,2.3-.82,3.67-1.1s2.9-.21,4-.64c1.46-.54,3.15-1,4.62-1.49A40.09,40.09,0,0,0,309.49,95c1.62-.31,3.32.16,5,0,.33,0,.66,0,1,0a7.42,7.42,0,0,1,2.73.72,1.33,1.33,0,0,0,1,0,11.38,11.38,0,0,1,2.44-.85,6.84,6.84,0,0,1,.94-.15,11.76,11.76,0,0,1,3,.27c1,.25,2.41.09,3.35.47,3.91,1.09,6.24,2.88,10.41,3.86a14.27,14.27,0,0,0,2.71.55c1.33.06,2.66.07,4,.09,1.13,0,2.26,0,3.37.17a10.54,10.54,0,0,0,4.37,0,7.18,7.18,0,0,1,1,0c3.79.46,4.93-1.09,7.51-1.54a15.79,15.79,0,0,1,3.74-.39c.76,0,1.5-.08,2.23-.14a20,20,0,0,1,2.9,0,42,42,0,0,0,6.59.75c1.11.1,2.16.28,3.23.42a7.75,7.75,0,0,0,4.54-.4,17.57,17.57,0,0,1,5.59-1.23,12.51,12.51,0,0,1,1.62,0,100.32,100.32,0,0,1,10.69,1.54A27,27,0,0,0,409,99a9.88,9.88,0,0,0,2.6-.52,24.94,24.94,0,0,1,3-1.1,7.34,7.34,0,0,1,2,0,3.9,3.9,0,0,0,2.46-.5c1-.25,2.33-.23,3.4-.45.77-.14,1.46-.34,2.25-.47a9.61,9.61,0,0,1,2.57,0c.09,0,.56.32.5,0,0,0-.32-.11-.28-.23.85-.55.25-1.49,2.59-1.64"/><path class="cls-1" d="M234.18,105.64c.06-.52-.46-1.23,1.94-1,1.56.17,2.89.41,2.15,1.24-.21.23-.16.5-.23.75a4.6,4.6,0,0,1-2.32-.36C236.36,105.64,234.5,105.94,234.18,105.64Z"/><path class="cls-1" d="M353.89,100.22a12.13,12.13,0,0,1-1.29,0c-.49-.65,1.29-.75,1.77-1.18a.91.91,0,0,1,1.07.08c.35.54,1.37.52,2.37.55.27,1.28-1.73.67-3.1.57Z"/><path class="cls-1" d="M354.71,100.23c1.21,0,2.83.26,3.1-.57l3.87-.88a.89.89,0,0,1,.81,0c-1.31.53-2.51,1.12-4,1.57A5.66,5.66,0,0,1,354.71,100.23Z"/><path class="cls-1" d="M65.64,102.71c2.56.09,4.06.66,4.63,1.66C68.45,104,66.28,103.67,65.64,102.71Z"/><path class="cls-1" d="M195.47,95.25c2.31.42,5.29,0,7.05,1.08C200.2,95.94,197.17,96.38,195.47,95.25Z"/><path class="cls-1" d="M402.89,99.5c2.26-.24,4.41-.94,6.93-.19A44.28,44.28,0,0,1,402.89,99.5Z"/><path class="cls-1" d="M228.74,104.92c2.1-.52,3.43-.32,3.88.72a8.07,8.07,0,0,0-3.91-.1C228.28,105.32,228.28,105.11,228.74,104.92Z"/><path class="cls-1" d="M48.58,101.16l7.78.47c.24.06.32.12.24.17a.38.38,0,0,1-.24.08,57.46,57.46,0,0,1-7.8-.42c-.26-.08-.34-.15-.25-.21A.48.48,0,0,1,48.58,101.16Z"/><path class="cls-1" d="M346.13,100.08c1.71-.65,3-.59,3.88.39l-3.89-.09c-.27-.07-.35-.14-.26-.21A.42.42,0,0,1,346.13,100.08Z"/><path class="cls-1" d="M91.24,106c2.14-.7,4.68-.07,7-.23C96.06,106.4,93.54,105.85,91.24,106Z"/><path class="cls-1" d="M184.69,94.74c.18-.76,1.6-.61,2.75-.52s1,.35.3.6Z"/><path class="cls-1" d="M278.51,102.66c.29-1.18,1.51-1.78,4.64-1.18A9.85,9.85,0,0,0,278.51,102.66Z"/><path class="cls-1" d="M309.7,95.07c1.82-.59,3.63-.09,5.45.08C313.33,95.69,311.52,95.23,309.7,95.07Z"/><path class="cls-1" d="M298.78,98c.45-1.06,2.48-1.32,4.69-1.49C302.29,97.2,300.32,97.49,298.78,98Z"/><path class="cls-1" d="M325.2,94.7a10.48,10.48,0,0,0,3.54.3c.55-.06,1,0,.6.26a4.52,4.52,0,0,1-1,.12,5.69,5.69,0,0,1-3.09,0C324.81,95.12,324.77,94.91,325.2,94.7Z"/><path class="cls-1" d="M362.49,98.8l-.81,0c1-1.49,2.92-.61,4.66-.23A14.22,14.22,0,0,0,362.49,98.8Z"/><path class="cls-1" d="M291,99.75c.77-.68,1.5-1.38,3.92-1.19C293.53,98.92,293,99.75,291,99.75Z"/><path class="cls-1" d="M109.12,103.16c.84-.63,2.34-.78,3.93-.89A5.15,5.15,0,0,1,109.12,103.16Z"/><path class="cls-1" d="M346.13,100.08c0,.1,0,.2,0,.3l-4.62-.07C342.74,99.46,344.44,99.77,346.13,100.08Z"/><path class="cls-1" d="M152,96.68c0-.84,2.82-.48,3.11-1.2.68,0,1.08,0,.76.36C155.14,96.51,153.27,96.37,152,96.68Z"/><path class="cls-1" d="M424.68,96.15c.33-1.14,2.28.08,3.12-.31.37.08,1.58.17.22.32A31.07,31.07,0,0,1,424.68,96.15Z"/><path class="cls-1" d="M234.18,105.64c.94.23,1.4-.64,2.36-.16s-.55.54-.82.82a2.78,2.78,0,0,1-1.56-.34Z"/><path class="cls-1" d="M211.81,100.25c1.66.22,4.54-.5,4.57,1C215.46,100.44,213.05,100.8,211.81,100.25Z"/><path class="cls-1" d="M48.58,101.16c0,.1,0,.2,0,.3l-3.07.54C45.64,101.21,47,101.09,48.58,101.16Z"/><path class="cls-1" d="M204.79,97.3c1.48,0,2.26.38,2.32,1C205.08,98.44,205.64,97.6,204.79,97.3Z"/><path class="cls-1" d="M40.78,102.62a4,4,0,0,1,3.87-.28Z"/><path class="cls-1" d="M75.68,105.08c1.49.28,3.43-.48,4.68.39C78.79,105.35,77,105.67,75.68,105.08Z"/><path class="cls-1" d="M137.14,100.53a5,5,0,0,1,3.12-.28C139.84,101.32,138.15,100.38,137.14,100.53Z"/><path class="cls-1" d="M367.93,98.29c.5-.78.66-.77,3.13,0Z"/><path class="cls-1" d="M105.23,104.34c-.68-.48.07-.92.85-1,1.18-.08.52.43.7.68Z"/><path class="cls-1" d="M272.27,104.41c0-.51.71-.9,1.73-1,1.54-.2.66.24.58.46Z"/><path class="cls-1" d="M412.18,98.72c-1.17-.79,1.06-.82,1.61-1.22a.79.79,0,0,1,.79,0Z"/><path class="cls-1" d="M85.79,105.88c1.35-.33,2.73-.71,3.08.39C88.05,105.85,86.71,106.16,85.79,105.88Z"/><path class="cls-1" d="M172.24,93.28c1.41-.52,3.08-.22,4.67-.16.06,0,.15.08.14.13s-.1.09-.16.13Z"/><path class="cls-1" d="M56.36,101.88a1,1,0,0,1,0-.25c1.82.12,3.81-.25,5.43.4Z"/><path class="cls-1" d="M414.58,97.52l-.79,0c1-.63,2.08-1,3.08.06Z"/><path class="cls-1" d="M325.2,94.7l.05.63a11.4,11.4,0,0,0-3.11-.36C322.81,94.31,323.91,94.35,325.2,94.7Z"/><path class="cls-1" d="M319.06,95.22l3.1-.26c-.35.55-2.46.52-2.37,1.21C318,96,318.48,95.63,319.06,95.22Z"/><path class="cls-1" d="M419.21,97a5.11,5.11,0,0,1,3.85-.28A14.6,14.6,0,0,1,419.21,97Z"/><path class="cls-1" d="M378,99.07a3.58,3.58,0,0,1,3.07.38A12.41,12.41,0,0,1,378,99.07Z"/><path class="cls-1" d="M166.05,92.58c1.45-.61,2.47-.47,3.09.34A9.88,9.88,0,0,0,166.05,92.58Z"/><path class="cls-1" d="M178.46,93.7c1.29-.29,2.58-.85,3.86.07Z"/><path class="cls-1" d="M228.74,104.92c0,.2,0,.41,0,.62l-2.29,0C226.48,104.87,227.63,104.9,228.74,104.92Z"/><path class="cls-1" d="M319.06,95.22c0,.34-.24.72.73,1a2.39,2.39,0,0,1-2.33,0c.78-.23,0-.69.77-.92Z"/><path class="cls-1" d="M26.85,101.42c.78.41,2.62,0,3.06.68C28.73,102,27.08,102.25,26.85,101.42Z"/><path class="cls-1" d="M318.23,95.21c0,.34.2.72-.77.92.19-.69-1.77-.56-2.3-1Z"/><path class="cls-1" d="M219.48,103.82c1.93-.46,2.62,0,3.06.69Z"/><path class="cls-1" d="M284,101.18c.37-.44.29-1.18,2.33-.58Z"/><path class="cls-1" d="M269.88,105.33l1.57-.28c-.06.28.24.66-.6.76S270,105.55,269.88,105.33Z"/><path class="cls-1" d="M391.25,97.74c-.29-.09-1.42,0-.75-.28a2,2,0,0,1,2.29.32Z"/><path class="cls-1" d="M222.52,104.51c1,.18,1.56.51,1.55,1C222.47,105.43,222.54,105,222.52,104.51Z"/><path class="cls-1" d="M244.88,106l3.14.69C246.77,106.62,245.15,106.85,244.88,106Z"/><path class="cls-1" d="M155.89,95.84l-.76-.36c.44-.5,1.27-.51,2.29-.25A2.46,2.46,0,0,1,155.89,95.84Z"/><path class="cls-1" d="M420,24.06c3.46,0,4.54-.62,4.28-1.77a22.49,22.49,0,0,1,0-4c0-.45-.93-.6-2-.67-3-.07-6.07.07-8.65-.73a4.22,4.22,0,0,0-2,.16c-1.07.2-2.29.27-3.44.4-.49.06-1,.14-1.43.22a18.84,18.84,0,0,1-3.71.45c-2.41-.11-4.79-.33-7.24-.3-1.63,0-3.28,0-4.89-.2-1.42-.22-2.82-.46-4.27-.67a52.52,52.52,0,0,0-5.23-1.41,28.58,28.58,0,0,0-5-.58c-1.37-.18-2.81-.19-4.22-.25a42.21,42.21,0,0,0-5.53-.51A24.1,24.1,0,0,1,363,14a11.53,11.53,0,0,0-2.8.17c-1.85.16-3.86-.1-5.67.16-2.8.13-4.67.9-7.31,1.13-.57.12-1.15.22-1.74.32-.92.13-1.32.48-2.29.58a9.7,9.7,0,0,0-3.9.94,5.45,5.45,0,0,1-2.79.13,45.22,45.22,0,0,0-21.26,1.05c-1.2.2-2.68.06-3.86.29-3.7-.17-8.53.84-9.67,2.05-.31.32-.32.68-1.13.93-1.18.32-2.84.36-4,.71a5.12,5.12,0,0,0-1.51.65c-.81.7-2.51,1.16-3.78,1.73s-3.53.52-5.58.43a11.78,11.78,0,0,1-3-.28,10.19,10.19,0,0,0-3.7-.33,26.34,26.34,0,0,1-3.77-.09c-.71-.07-1.42-.15-2.15-.18-1.1-.05-2.22-.05-3.3-.15a22.16,22.16,0,0,1-3.14-.71c-.83-.1-1.69-.15-2.53-.23-2.62-.16-5.22-.39-7.86-.5-2.17-.48-4.82-.46-7-.88a9.65,9.65,0,0,1-2.76-.82,4.55,4.55,0,0,0-2.4-.91c-2.26-.26-2.28-1.27-4.5-1.55-1.62-.24-3.65-.24-4.52-.93s-1-1.47-2.93-2c-.91-.25-2-.41-2.83-.7a2.82,2.82,0,0,1-.55-.26,2.55,2.55,0,0,0-1.34-.57,20.82,20.82,0,0,0-2.24,0c-.64,0-1.29,0-1.93,0a8.93,8.93,0,0,1-4.1-.19c-.54-.12-1.09-.24-1.66-.35s-1.15-.21-1.74-.3c-.78-.11-1.59-.17-2.38-.27a14.3,14.3,0,0,0-4.43-.28,4.4,4.4,0,0,1-2.6-.4,4.11,4.11,0,0,0-2.4-.31,16.85,16.85,0,0,1-7.52.27,8.83,8.83,0,0,0-4.67.49,26.84,26.84,0,0,1-9.55,1.27,2.56,2.56,0,0,0-1.51.11,10.16,10.16,0,0,1-.94.54,9.08,9.08,0,0,1-2.38.62,18.43,18.43,0,0,0-3.58,1,16.16,16.16,0,0,1-4.51,1c-.45.06-.89.12-1.3.2-.8.19-1.55.4-2.39.57a35.89,35.89,0,0,1-4.68.61c-1.51.18-2.3.69-3.67.93s-2.91.17-4,.52c-1.46.45-3.15.8-4.63,1.24a47.5,47.5,0,0,0-6.42,1.06c-1.62.25-3.33-.15-5,0-.33,0-.66,0-1,0a8.3,8.3,0,0,1-2.74-.61,1.56,1.56,0,0,0-1,0,13.07,13.07,0,0,1-2.45.71c-.29.05-.61.09-.94.12a13.93,13.93,0,0,1-3-.23c-1-.22-2.42-.09-3.36-.41-3.92-.93-6.26-2.44-10.44-3.29a18.72,18.72,0,0,0-2.72-.47c-1.33-.05-2.66-.06-4-.08-1.13,0-2.27-.05-3.38-.15a12.39,12.39,0,0,0-4.38,0c-.34,0-.68,0-1,0-3.79-.4-4.93.9-7.51,1.27a18.46,18.46,0,0,1-3.75.32c-.76,0-1.5.07-2.24.12a21.59,21.59,0,0,1-2.9,0,49.21,49.21,0,0,0-6.61-.64c-1.1-.09-2.15-.24-3.23-.36a9.22,9.22,0,0,0-4.55.31,20.58,20.58,0,0,1-5.6,1,14.59,14.59,0,0,1-1.62,0c-3.84-.16-7.16-.87-10.72-1.33a32,32,0,0,0-5.63.07,11.61,11.61,0,0,0-2.6.44,29.19,29.19,0,0,1-3,.91,9.37,9.37,0,0,1-2.05,0,4.53,4.53,0,0,0-2.46.41c-1,.21-2.33.19-3.41.37-.77.12-1.46.29-2.25.39a11.62,11.62,0,0,1-2.57,0c-.09,0-.57-.28-.5,0,0,0,.31.09.28.2-.85.46-.25,1.25-2.59,1.37"/><path class="cls-1" d="M217.57,13.81c-.06.44.46,1-1.94.82-1.57-.15-2.9-.36-2.16-1.06.2-.19.16-.42.23-.63a5.44,5.44,0,0,1,2.32.31C215.38,13.8,217.25,13.56,217.57,13.81Z"/><path class="cls-1" d="M97.64,18.05a12.13,12.13,0,0,1,1.29,0c.5.54-1.29.62-1.77,1A1,1,0,0,1,96.09,19c-.36-.45-1.38-.44-2.38-.46-.28-1.08,1.73-.56,3.11-.48Z"/><path class="cls-1" d="M96.82,18c-1.22,0-2.84-.22-3.11.48l-3.87.73a1,1,0,0,1-.81,0c1.31-.45,2.51-.94,4-1.31A6.7,6.7,0,0,1,96.82,18Z"/><path class="cls-1" d="M386.44,16.75c-2.57-.08-4.07-.57-4.65-1.42C383.62,15.7,385.79,15.93,386.44,16.75Z"/><path class="cls-1" d="M256.37,22.67c-2.3-.35-5.29,0-7.06-.92C251.63,22.08,254.68,21.72,256.37,22.67Z"/><path class="cls-1" d="M48.55,18.52c-2.27.19-4.42.78-6.95.14A50.12,50.12,0,0,1,48.55,18.52Z"/><path class="cls-1" d="M223,14.44c-2.1.43-3.43.25-3.88-.62a9.71,9.71,0,0,0,3.91.09C223.48,14.1,223.48,14.27,223,14.44Z"/><path class="cls-1" d="M403.53,18.11l-7.79-.43c-.24-.05-.32-.1-.24-.14a.44.44,0,0,1,.24-.07,69.25,69.25,0,0,1,7.81.38c.26.07.34.12.25.18A.56.56,0,0,1,403.53,18.11Z"/><path class="cls-1" d="M105.41,18.19c-1.71.54-3,.49-3.89-.34l3.91.08c.26.06.35.12.25.18A.56.56,0,0,1,105.41,18.19Z"/><path class="cls-1" d="M360.78,13.89c-2.15.59-4.69,0-7,.18C356,13.55,358.47,14,360.78,13.89Z"/><path class="cls-1" d="M267.18,23.13c-.18.65-1.6.52-2.75.44s-1-.3-.3-.51Z"/><path class="cls-1" d="M173.15,16.2c-.28,1-1.5,1.49-4.64,1A11.31,11.31,0,0,0,173.15,16.2Z"/><path class="cls-1" d="M141.92,22.51c-1.81.49-3.63.06-5.45-.08C138.28,22,140.1,22.37,141.92,22.51Z"/><path class="cls-1" d="M152.86,20.07c-.45.9-2.48,1.11-4.7,1.24A35,35,0,0,1,152.86,20.07Z"/><path class="cls-1" d="M126.4,22.78a12.38,12.38,0,0,0-3.55-.27c-.55.06-1,0-.6-.22a5.7,5.7,0,0,1,1-.09,6.63,6.63,0,0,1,3.1.05C126.79,22.43,126.83,22.6,126.4,22.78Z"/><path class="cls-1" d="M89,19.22l.81,0c-1,1.25-2.93.51-4.67.18A17.3,17.3,0,0,0,89,19.22Z"/><path class="cls-1" d="M160.67,18.62c-.77.57-1.5,1.16-3.93,1C158.12,19.31,158.61,18.61,160.67,18.62Z"/><path class="cls-1" d="M342.87,16.25a9.13,9.13,0,0,1-3.93.73A6,6,0,0,1,342.87,16.25Z"/><path class="cls-1" d="M105.41,18.19a1.14,1.14,0,0,1,0-.26l4.62.08C108.81,18.72,107.11,18.45,105.41,18.19Z"/><path class="cls-1" d="M299.91,21.59c0,.71-2.83.4-3.12,1-.68,0-1.08,0-.76-.3C296.78,21.72,298.66,21.85,299.91,21.59Z"/><path class="cls-1" d="M26.72,21.28c-.33,1-2.28-.07-3.12.26-.37-.08-1.59-.15-.22-.28C24.4,21.17,25.6,21.27,26.72,21.28Z"/><path class="cls-1" d="M217.57,13.81c-.95-.19-1.4.53-2.37.13s.55-.46.82-.69a3.19,3.19,0,0,1,1.56.29Z"/><path class="cls-1" d="M240,18.42c-1.67-.2-4.56.41-4.58-.86C236.33,18.24,238.74,18,240,18.42Z"/><path class="cls-1" d="M403.53,18.11c0-.09,0-.17,0-.26l3.08-.45C406.49,18.07,405.16,18.16,403.53,18.11Z"/><path class="cls-1" d="M247,20.92c-1.48-.05-2.26-.32-2.32-.83C246.74,20,246.18,20.67,247,20.92Z"/><path class="cls-1" d="M411.35,16.9a4.66,4.66,0,0,1-3.88.22Z"/><path class="cls-1" d="M376.38,14.73c-1.5-.25-3.45.38-4.69-.35C373.25,14.49,375,14.23,376.38,14.73Z"/><path class="cls-1" d="M314.8,18.39a5.8,5.8,0,0,1-3.12.23C312.1,17.72,313.79,18.51,314.8,18.39Z"/><path class="cls-1" d="M83.57,19.64c-.49.65-.65.64-3.13-.05Z"/><path class="cls-1" d="M346.76,15.27c.69.4-.06.77-.84.81-1.18.06-.52-.37-.71-.57Z"/><path class="cls-1" d="M179.41,14.74c0,.43-.71.75-1.73.86-1.55.17-.67-.2-.59-.38Z"/><path class="cls-1" d="M39.24,19.15c1.18.67-1.06.68-1.61,1a.91.91,0,0,1-.79,0Z"/><path class="cls-1" d="M366.24,14c-1.35.28-2.73.59-3.09-.34C364,14,365.31,13.78,366.24,14Z"/><path class="cls-1" d="M279.66,24.4a14.85,14.85,0,0,1-4.68.12c-.06,0-.15-.07-.14-.1s.1-.08.16-.12Z"/><path class="cls-1" d="M395.74,17.47a.74.74,0,0,1,0,.21c-1.82-.1-3.82.21-5.44-.35Z"/><path class="cls-1" d="M36.84,20.15l.79,0c-1,.53-2.08.86-3.09-.05Z"/><path class="cls-1" d="M126.4,22.78l-.05-.53a13.9,13.9,0,0,0,3.11.31C128.8,23.12,127.69,23.07,126.4,22.78Z"/><path class="cls-1" d="M132.55,22.36l-3.11.21c.35-.46,2.47-.44,2.38-1C133.66,21.67,133.13,22,132.55,22.36Z"/><path class="cls-1" d="M32.2,20.59a6,6,0,0,1-3.86.22A17.27,17.27,0,0,1,32.2,20.59Z"/><path class="cls-1" d="M73.47,19a4.23,4.23,0,0,1-3.09-.33A14.86,14.86,0,0,1,73.47,19Z"/><path class="cls-1" d="M285.86,25c-1.45.51-2.47.39-3.09-.3A11.67,11.67,0,0,0,285.86,25Z"/><path class="cls-1" d="M273.43,24c-1.29.24-2.59.7-3.87-.07Z"/><path class="cls-1" d="M223,14.44l0-.53,2.29,0C225.28,14.49,224.13,14.45,223,14.44Z"/><path class="cls-1" d="M132.55,22.36c0-.29.24-.61-.73-.81a2.79,2.79,0,0,1,2.33.05c-.78.19,0,.58-.77.77Z"/><path class="cls-1" d="M425.3,17.94c-.78-.35-2.62,0-3.06-.58C423.42,17.45,425.07,17.24,425.3,17.94Z"/><path class="cls-1" d="M133.38,22.37c0-.29-.2-.61.77-.77-.19.58,1.78.47,2.31.83Z"/><path class="cls-1" d="M232.3,15.39c-1.94.38-2.63,0-3.07-.6Z"/><path class="cls-1" d="M167.69,17.43c-.37.37-.28,1-2.33.48Z"/><path class="cls-1" d="M181.79,14l-1.57.24c.06-.24-.24-.56.6-.64S181.64,13.78,181.79,14Z"/><path class="cls-1" d="M60.22,20c.28.08,1.42,0,.75.24a2.34,2.34,0,0,1-2.3-.27Z"/><path class="cls-1" d="M229.25,14.8c-1-.16-1.56-.44-1.56-.82C229.3,14,229.23,14.42,229.25,14.8Z"/><path class="cls-1" d="M206.74,12.29l-3.15-.58C204.84,11.77,206.46,11.59,206.74,12.29Z"/><path class="cls-1" d="M296,22.29l.76.3c-.44.43-1.26.43-2.29.21A2.71,2.71,0,0,1,296,22.29Z"/><rect class="cls-1" x="26.43" y="21.02" width="394.14" height="74.09"/><path class="cls-1" d="M45.65,20.06c.17-2.17-1.64-3-5.25-3.09-4.2-.12-8.37-.62-12.56-.9-1.41-.08-1.92.45-2.22,1.12-.44,1.86-.19,3.82-2.88,5.26-.69.37,0,.88.38,1.31a9.23,9.23,0,0,1,1,2.24,6.7,6.7,0,0,0,.62.95,3.85,3.85,0,0,1,1.15,2.42c-.53,1.49-1.38,2.93-1.44,4.47a8.48,8.48,0,0,1-.94,3c-.79.84-1.65,1.66-2.39,2.53a28.86,28.86,0,0,0-4.76,3c-1.46.81-1.55,2-2.16,3a7.31,7.31,0,0,0-1.07,2.59c-.57,1.13-2.11,2.06-2,3.35a3.5,3.5,0,0,1-.87,2.16c-.53.63.15,1.2.33,1.8.37,1.19-.55,2.39.12,3.59C11,60.61,13.23,62,13.8,63.66c.31.39.59.78.87,1.17.32.6,1.41.93,1.66,1.57-.06,1.21,1.5,1.87,2.68,2.66.82.56.88,1.13.21,1.77-4.87,4.72-3.71,9.23,1.82,13.56.56.8,0,1.69.67,2.49-.78,2.28,2,5.53,5.73,6.53a7.73,7.73,0,0,1,2.83.92c.94.81.95,1.86,2,2.65a6.05,6.05,0,0,0,1.93,1.09c2.1.67,3.44,1.84,5.15,2.77s1.35,2.33.94,3.59"/><path class="cls-1" d="M20.53,39.41C20.11,41,18.47,41.83,15.79,42,17.06,40.94,17.94,39.63,20.53,39.41Z"/><path class="cls-1" d="M9.87,54.84c1.7,1.47-.17,2.94.07,4.42C8.47,57.78,10.13,56.31,9.87,54.84Z"/><path class="cls-1" d="M13.52,45.25c-.86.89,1,2.25-1.4,2.86C12.56,47.15,11.87,46,13.52,45.25Z"/><path class="cls-1" d="M13.21,63.93c1.31-.34,2.4.21,2.48.72.11.75-1.17.24-1.84.31Z"/><path class="cls-1" d="M10.63,51.44c.78.91,1.67,1.85-1.26,1.86C10.54,52.86,9.83,52,10.63,51.44Z"/><path class="cls-1" d="M406.74,24.55c0-2.17,1.9-2.92,5.52-2.9,4.2,0,8.41-.32,12.62-.45,1.41,0,1.88.51,2.11,1.19.27,1.87-.15,3.82,2.41,5.35.66.39-.11.88-.49,1.29a10.39,10.39,0,0,0-1.2,2.21,6.47,6.47,0,0,1-.7.93,4.06,4.06,0,0,0-1.36,2.38c.39,1.5,1.11,3,1,4.51a8.18,8.18,0,0,0,.68,3c.71.87,1.5,1.72,2.16,2.61A27.58,27.58,0,0,1,434,47.82c1.38.86,1.37,2,1.89,3.08a6.91,6.91,0,0,1,.83,2.62c.47,1.15,1.92,2.13,1.66,3.41a3.38,3.38,0,0,0,.68,2.19c.46.65-.26,1.19-.49,1.78-.48,1.18.33,2.41-.44,3.58-.37,1.77-2.77,3-3.49,4.72-.34.37-.66.75-1,1.13-.38.6-1.5.89-1.81,1.51,0,1.21-1.65,1.82-2.9,2.56-.88.54-1,1.1-.37,1.77,4.44,4.88,2.88,9.34-3,13.48-.63.77-.16,1.69-.89,2.46.58,2.3-2.53,5.45-6.31,6.31a8.26,8.26,0,0,0-2.9.82c-1,.78-1.12,1.83-2.21,2.59"/><path class="cls-1" d="M430.09,44.75c.28,1.61,1.85,2.49,4.5,2.75C433.43,46.4,432.66,45.06,430.09,44.75Z"/><path class="cls-1" d="M439.36,60.53c-1.82,1.41-.09,2.94-.47,4.41C440.5,63.51,439,62,439.36,60.53Z"/><path class="cls-1" d="M436.57,50.83c.78.91-1.18,2.21,1.14,2.9C437.36,52.76,438.15,51.63,436.57,50.83Z"/><path class="cls-1" d="M435.21,69.49c-1.27-.38-2.41.13-2.53.63-.19.74,1.14.28,1.81.37Z"/><path class="cls-1" d="M438.9,57.11c-.85.88-1.82,1.79,1.1,1.9C438.87,58.53,439.66,57.66,438.9,57.11Z"/></svg>